# xmcd
#
# Track frame offsets:
#       183
#       12745
#       23685
#       39045
#       52115
#       67275
#       79803
#       96723
#       115333
#       125675
#       143348
#       161553
#
# Disc length: 2322 seconds
#
# Revision: 0
# Processed by: cddbd v1.4PL0 Copyright (c) Steve Scherf et al.
# Submitted via: WhereIsIt 3.21
#
DISCID=a709100c
DTITLE=Barrance Whitfield - Let's Lose It
DYEAR=1900
DGENRE=
TTITLE0=Method To My Madness
TTITLE1=I Smell A Rat
TTITLE2=Under My Nose
TTITLE3=Dust On My Needle
TTITLE4=Girl Gunslinger
TTITLE5=Let's Lose It
TTITLE6=Calling All Beasts
TTITLE7=For A Good Time
TTITLE8=My Mumblin' Baby
TTITLE9=Signs Of A Struggle
TTITLE10=Loneliness Ain't No Crime
TTITLE11=Wake Up
EXTD=
EXTT0=
EXTT1=
EXTT2=
EXTT3=
EXTT4=
EXTT5=
EXTT6=
EXTT7=
EXTT8=
EXTT9=
EXTT10=
EXTT11=
PLAYORDER=
